<?xml version="1.0" encoding="UTF-8"?>
<!DOCTYPE svg PUBLIC "-//W3C//DTD SVG 1.1//EN" "http://www.w3.org/Graphics/SVG/1.1/DTD/svg11.dtd">
<!-- Creator: CorelDRAW -->
<svg xmlns="http://www.w3.org/2000/svg" xml:space="preserve" width="32px" height="32px" version="1.1" style="shape-rendering:geometricPrecision; text-rendering:geometricPrecision; image-rendering:optimizeQuality; fill-rule:evenodd; clip-rule:evenodd"
viewBox="0 0 32 32"
 xmlns:xlink="http://www.w3.org/1999/xlink"
 xmlns:xodm="http://www.corel.com/coreldraw/odm/2003">
 <defs>
  <style type="text/css">
   <![CDATA[
    .fil0 {fill:url(#id0);fill-rule:nonzero}
   ]]>
  </style>
  <linearGradient id="id0" gradientUnits="userSpaceOnUse" x1="8.11" y1="32" x2="8.11" y2="0">
   <stop offset="0" style="stop-opacity:1; stop-color:red"/>
   <stop offset="1" style="stop-opacity:1; stop-color:#FF6600"/>
  </linearGradient>
 </defs>
 <g id="Camada_x0020_1">
  <metadata id="CorelCorpID_0Corel-Layer"/>
  <path class="fil0" d="M14.23 0l1.77 2.34c-3.66,2.65 -6.34,5.28 -8.06,7.89 -1.71,2.61 -2.57,4.87 -2.57,6.78 0,1.26 0.44,1.9 1.33,1.9l0.56 -0.05c0.89,-0.23 1.64,-0.35 2.23,-0.35 1.61,0 3.02,0.61 4.19,1.81 1.16,1.22 1.75,2.73 1.75,4.52 0,1.98 -0.63,3.66 -1.87,5.06 -1.24,1.4 -2.68,2.1 -4.3,2.1 -2.38,0 -4.48,-1.01 -6.31,-3.05 -1.81,-2.03 -2.72,-4.66 -2.72,-7.92 0,-7.79 4.66,-14.8 14,-21.03zm15.77 0l1.77 2.34c-3.65,2.65 -6.34,5.28 -8.06,7.89 -1.71,2.61 -2.57,4.87 -2.57,6.78 0,1.26 0.44,1.9 1.34,1.9l0.55 -0.05c0.89,-0.23 1.64,-0.35 2.23,-0.35 1.62,0 3.03,0.61 4.19,1.81 1.16,1.22 1.75,2.73 1.75,4.52 0,1.98 -0.63,3.66 -1.87,5.06 -1.23,1.4 -2.68,2.1 -4.3,2.1 -2.38,0 -4.48,-1.01 -6.31,-3.05 -1.81,-2.03 -2.72,-4.66 -2.72,-7.92 0,-7.79 4.67,-14.8 14,-21.03z"/>
 </g>
</svg>
