<?xml version="1.0" encoding="UTF-8"?>
<!DOCTYPE svg PUBLIC "-//W3C//DTD SVG 1.1//EN" "http://www.w3.org/Graphics/SVG/1.1/DTD/svg11.dtd">
<!-- Creator: CorelDRAW -->
<svg xmlns="http://www.w3.org/2000/svg" xml:space="preserve" width="31px" height="32px" version="1.1" style="shape-rendering:geometricPrecision; text-rendering:geometricPrecision; image-rendering:optimizeQuality; fill-rule:evenodd; clip-rule:evenodd"
viewBox="0 0 31 32"
 xmlns:xlink="http://www.w3.org/1999/xlink"
 xmlns:xodm="http://www.corel.com/coreldraw/odm/2003">
 <defs>
  <style type="text/css">
   <![CDATA[
    .fil0 {fill:#757576}
   ]]>
  </style>
 </defs>
 <g id="Camada_x0020_1">
  <metadata id="CorelCorpID_0Corel-Layer"/>
  <path class="fil0" d="M1.66 15.99c0.12,-7.46 5.96,-13.95 13.55,-14 4.27,-0.02 8.5,1.65 11.28,4.96 0.23,0.27 0.44,0.52 0.7,0.15l0.73 -1.04c0.15,-0.21 -0.05,-0.48 -0.18,-0.64 -3.17,-3.57 -7.8,-5.39 -12.54,-5.37 -8.65,0.05 -15.34,7.38 -15.48,15.91 -0.14,8.77 6.94,16.12 15.78,15.98 6.35,-0.09 11.85,-3.85 14,-9.82 0.51,-1.42 0.93,-4.24 0.73,-5.72l0 -0.01c-0.06,-0.51 -0.44,-0.72 -0.93,-0.72l-8.22 0c-0.25,0 -0.64,0.13 -0.8,0.34l-0.8 1.07c-0.31,0.41 0.09,0.57 0.46,0.57l8.51 0 0 0.07c-0.48,7 -5.91,12.16 -12.94,12.28 -7.76,0.13 -13.97,-6.31 -13.85,-14.01z"/>
 </g>
</svg>
