<?xml version="1.0" encoding="UTF-8"?>
<!DOCTYPE svg PUBLIC "-//W3C//DTD SVG 1.1//EN" "http://www.w3.org/Graphics/SVG/1.1/DTD/svg11.dtd">
<!-- Creator: CorelDRAW -->
<svg xmlns="http://www.w3.org/2000/svg" xml:space="preserve" width="167px" height="32px" version="1.1" style="shape-rendering:geometricPrecision; text-rendering:geometricPrecision; image-rendering:optimizeQuality; fill-rule:evenodd; clip-rule:evenodd"
viewBox="0 0 167 32"
 xmlns:xlink="http://www.w3.org/1999/xlink"
 xmlns:xodm="http://www.corel.com/coreldraw/odm/2003">
 <defs>
  <style type="text/css">
   <![CDATA[
    .fil0 {fill:#757576}
   ]]>
  </style>
 </defs>
 <g id="Camada_x0020_1">
  <metadata id="CorelCorpID_0Corel-Layer"/>
  <path class="fil0" d="M40.4 0.75c-0.16,0 -0.29,0.13 -0.29,0.29 0,9.53 0,19.06 0,28.6 0,1.07 0.89,1.96 1.96,1.96l21.25 0c0.23,0 1.11,-1.21 1.11,-1.49 0,-0.56 -0.5,-0.58 -0.95,-0.58l-21.03 0c-0.24,0 -0.44,-0.2 -0.44,-0.45 0,-9.35 0,-18.7 0,-28.04 0,-0.16 -0.13,-0.29 -0.29,-0.29l-1.32 0zm114.86 31.25c5.33,0 11.02,-2.82 11.02,-8.83 0,-4.04 -2.32,-5.99 -5.93,-7.26 -2.9,-1.07 -6.01,-1.38 -8.93,-2.37 -2.7,-0.92 -4.76,-1.78 -4.76,-5.01 0,-1.44 0.45,-2.67 1.44,-3.71 1.64,-1.71 4.37,-2.46 6.69,-2.46 3.29,0 6.01,1.04 7.79,3.91 0.1,0.16 0.28,0.4 0.49,0.22l0.9 -0.78c0.22,-0.22 0.14,-0.53 -0.02,-0.76 -2.23,-3.44 -5.13,-4.56 -9.14,-4.56 -2.88,0 -6.01,0.82 -8.06,2.96 -1.31,1.38 -2.04,3.15 -2.04,5.06 0,4.11 2.46,5.86 6.07,7.09 2.94,1 6.07,1.35 8.99,2.43 2.62,0.85 4.4,2.44 4.4,5.34 0,4.84 -4.73,6.78 -8.91,6.78 -3.72,0 -6.74,-1.04 -8.62,-4.41 -0.26,-0.46 -0.44,-0.39 -0.78,-0.08l-0.63 0.59c-0.27,0.27 -0.24,0.37 -0.05,0.71 2.19,3.9 5.8,5.14 10.08,5.14zm-31.34 -31.61c-2.89,0 -6.02,0.82 -8.07,2.96 -1.31,1.38 -2.04,3.15 -2.04,5.06 0,4.11 2.46,5.86 6.06,7.09 2.95,1 6.08,1.35 9,2.43 2.62,0.85 4.4,2.44 4.4,5.34 0,4.84 -4.73,6.78 -8.91,6.78 -3.72,0 -6.74,-1.04 -8.62,-4.41 -0.26,-0.46 -0.44,-0.39 -0.78,-0.08l-0.63 0.59c-0.27,0.27 -0.24,0.37 -0.05,0.71 2.19,3.9 5.8,5.14 10.08,5.14 5.33,0 11.02,-2.82 11.02,-8.83 0,-4.04 -2.32,-5.99 -5.93,-7.26 -2.9,-1.07 -6.01,-1.38 -8.93,-2.37 -2.7,-0.92 -4.76,-1.78 -4.76,-5.01 0,-1.44 0.45,-2.67 1.44,-3.71 1.64,-1.71 4.37,-2.46 6.69,-2.46 3.29,0 6.01,1.04 7.79,3.91 0.1,0.16 0.28,0.4 0.49,0.22l0.9 -0.78c0.23,-0.22 0.14,-0.53 -0.02,-0.76 -2.23,-3.44 -5.13,-4.56 -9.13,-4.56zm-122.26 15.55c0.12,-7.46 5.96,-13.96 13.55,-14 4.28,-0.02 8.51,1.65 11.28,4.96 0.23,0.27 0.44,0.52 0.7,0.15l0.74 -1.05c0.14,-0.21 -0.05,-0.47 -0.19,-0.63 -3.17,-3.57 -7.8,-5.39 -12.54,-5.37 -8.65,0.05 -15.34,7.38 -15.48,15.91 -0.14,8.77 6.95,16.12 15.78,15.98 6.35,-0.1 11.85,-3.85 14.01,-9.82 0.5,-1.42 0.92,-4.25 0.72,-5.72l0 -0.01c-0.06,-0.51 -0.44,-0.72 -0.93,-0.72l-8.21 0c-0.26,0 -0.65,0.13 -0.81,0.34l-0.8 1.07c-0.31,0.41 0.09,0.57 0.47,0.57l8.51 0 -0.01 0.07c-0.48,7 -5.91,12.16 -12.94,12.28 -7.76,0.13 -13.97,-6.31 -13.85,-14.01zm95.97 -14.56l-26.13 29.44c-0.26,0.29 -0.34,0.78 0.18,0.78l1.49 0c0.23,0 0.54,-0.2 0.68,-0.37l25.49 -28.78 0 28.85c0,0.16 0.13,0.3 0.3,0.3l1.35 0c0.17,0 0.3,-0.14 0.3,-0.3l0 -28.68c0,-1.24 -0.73,-2.11 -2.01,-2.14 -0.66,0.05 -1.22,0.41 -1.65,0.9z"/>
 </g>
</svg>
