<?xml version="1.0" encoding="UTF-8"?>
<!DOCTYPE svg PUBLIC "-//W3C//DTD SVG 1.1//EN" "http://www.w3.org/Graphics/SVG/1.1/DTD/svg11.dtd">
<!-- Creator: CorelDRAW -->
<svg xmlns="http://www.w3.org/2000/svg" xml:space="preserve" width="32px" height="32px" version="1.1" style="shape-rendering:geometricPrecision; text-rendering:geometricPrecision; image-rendering:optimizeQuality; fill-rule:evenodd; clip-rule:evenodd"
viewBox="0 0 32 32"
 xmlns:xlink="http://www.w3.org/1999/xlink"
 xmlns:xodm="http://www.corel.com/coreldraw/odm/2003"
 data-name="Layer 1">
 <defs>
  <style type="text/css">
   <![CDATA[
    .fil0 {fill:goldenrod}
   ]]>
  </style>
 </defs>
 <g id="Camada_x0020_1">
  <metadata id="CorelCorpID_0Corel-Layer"/>
  <path class="fil0" d="M16 0c8.84,0 16,7.16 16,16 0,8.84 -7.16,16 -16,16 -8.84,0 -16,-7.16 -16,-16 0,-8.84 7.16,-16 16,-16zm5.75 11.5c0,-0.69 -0.56,-1.25 -1.25,-1.25 -0.69,0 -1.25,0.56 -1.25,1.25 0,0.69 0.56,1.25 1.25,1.25 0.69,0 1.25,-0.56 1.25,-1.25zm-10.75 -4.5l10 0c1.11,0 2.1,0.45 2.83,1.17 0.72,0.73 1.17,1.73 1.17,2.83l0 10c0,1.11 -0.45,2.1 -1.17,2.83 -0.73,0.72 -1.72,1.17 -2.83,1.17l0 0 -10 0c-1.11,0 -2.11,-0.45 -2.83,-1.17 -0.72,-0.73 -1.17,-1.72 -1.17,-2.83l0 0 0 -10c0,-1.11 0.45,-2.11 1.17,-2.83 0.73,-0.72 1.73,-1.17 2.83,-1.17zm10 2l-10 0c-0.55,0 -1.05,0.22 -1.41,0.59 -0.37,0.36 -0.59,0.86 -0.59,1.41l0 10 0 0c0,0.55 0.22,1.05 0.59,1.41 0.36,0.37 0.86,0.59 1.41,0.59l10 0 0 0c0.55,0 1.05,-0.22 1.41,-0.59 0.37,-0.36 0.59,-0.86 0.59,-1.41l0 -10c0,-0.55 -0.22,-1.05 -0.59,-1.41 -0.36,-0.37 -0.86,-0.59 -1.41,-0.59zm-5 3c-2.21,0 -4,1.79 -4,4 0,2.21 1.79,4 4,4 2.21,0 4,-1.79 4,-4 0,-2.21 -1.79,-4 -4,-4zm0 6c-1.1,0 -2,-0.9 -2,-2 0,-1.1 0.9,-2 2,-2 1.1,0 2,0.9 2,2 0,1.1 -0.9,2 -2,2z"/>
 </g>
</svg>
