<?xml version="1.0" encoding="UTF-8"?>
<!DOCTYPE svg PUBLIC "-//W3C//DTD SVG 1.1//EN" "http://www.w3.org/Graphics/SVG/1.1/DTD/svg11.dtd">
<!-- Creator: CorelDRAW -->
<svg xmlns="http://www.w3.org/2000/svg" xml:space="preserve" width="31px" height="32px" version="1.1" style="shape-rendering:geometricPrecision; text-rendering:geometricPrecision; image-rendering:optimizeQuality; fill-rule:evenodd; clip-rule:evenodd"
viewBox="0 0 31 32"
 xmlns:xlink="http://www.w3.org/1999/xlink"
 xmlns:xodm="http://www.corel.com/coreldraw/odm/2003">
 <defs>
  <style type="text/css">
   <![CDATA[
    .fil0 {fill:#757576}
   ]]>
  </style>
 </defs>
 <g id="Camada_x0020_1">
  <metadata id="CorelCorpID_0Corel-Layer"/>
  <path class="fil0" d="M1.61 15.99c0.13,-7.48 5.99,-14 13.6,-14.04 4.29,-0.02 8.53,1.65 11.32,4.97 0.23,0.27 0.44,0.52 0.7,0.15l0.74 -1.05c0.14,-0.21 -0.05,-0.47 -0.19,-0.63 -3.18,-3.59 -7.82,-5.41 -12.58,-5.39 -8.68,0.05 -15.39,7.4 -15.53,15.96 -0.14,8.8 6.97,16.18 15.83,16.04 6.37,-0.1 11.89,-3.87 14.05,-9.86 0.51,-1.42 0.93,-4.26 0.73,-5.73l0 -0.02c-0.06,-0.51 -0.44,-0.72 -0.93,-0.72l-8.25 0c-0.25,0 -0.65,0.13 -0.8,0.34l-0.81 1.08c-0.3,0.41 0.09,0.56 0.47,0.56l8.54 0 -0.01 0.08c-0.48,7.02 -5.93,12.2 -12.98,12.32 -7.78,0.13 -14.02,-6.34 -13.9,-14.06z"/>
 </g>
</svg>
