<?xml version="1.0" encoding="UTF-8"?>
<!DOCTYPE svg PUBLIC "-//W3C//DTD SVG 1.1//EN" "http://www.w3.org/Graphics/SVG/1.1/DTD/svg11.dtd">
<!-- Creator: CorelDRAW -->
<svg xmlns="http://www.w3.org/2000/svg" xml:space="preserve" width="32px" height="32px" version="1.1" style="shape-rendering:geometricPrecision; text-rendering:geometricPrecision; image-rendering:optimizeQuality; fill-rule:evenodd; clip-rule:evenodd"
viewBox="0 0 32 32"
 xmlns:xlink="http://www.w3.org/1999/xlink"
 xmlns:xodm="http://www.corel.com/coreldraw/odm/2003"
 data-name="Layer 1">
 <defs>
  <style type="text/css">
   <![CDATA[
    .fil0 {fill:goldenrod}
   ]]>
  </style>
 </defs>
 <g id="Camada_x0020_1">
  <metadata id="CorelCorpID_0Corel-Layer"/>
  <path class="fil0" d="M16 0c8.84,0 16,7.16 16,16 0,8.84 -7.16,16 -16,16 -8.84,0 -16,-7.16 -16,-16 0,-8.84 7.16,-16 16,-16zm10.26 9.63c-0.75,0.34 -1.56,0.57 -2.42,0.67 0.87,-0.52 1.54,-1.35 1.85,-2.33 -0.82,0.49 -1.73,0.84 -2.67,1.02 -0.77,-0.82 -1.86,-1.33 -3.07,-1.33 -2.33,0 -4.21,1.89 -4.21,4.21 0,0.33 0.04,0.65 0.11,0.96 -3.5,-0.18 -6.6,-1.85 -8.68,-4.4 -0.36,0.62 -0.57,1.35 -0.57,2.12 0,1.46 0.75,2.75 1.87,3.5 -0.66,-0.02 -1.32,-0.2 -1.9,-0.52l0 0.05c0,2.04 1.45,3.74 3.37,4.13 -0.35,0.09 -0.72,0.14 -1.1,0.14 -0.28,0 -0.54,-0.02 -0.8,-0.07 0.54,1.67 2.09,2.89 3.93,2.92 -1.44,1.13 -3.25,1.81 -5.22,1.81 -0.34,0 -0.68,-0.02 -1.01,-0.06 1.87,1.19 4.08,1.89 6.45,1.89 7.75,0 11.98,-6.42 11.98,-11.98 0,-0.18 0,-0.36 -0.01,-0.54 0.82,-0.6 1.53,-1.34 2.1,-2.19l0 0z"/>
 </g>
</svg>
